{
  "accessors": [
    {
      "name": "Node-Mesh_0_positions",
      "componentType": 5126,
      "count": 710,
      "min": [
        -11.214813232421875,
        0.000004999999873689376,
        -47.4964485168457
      ],
      "max": [
        11.214813232421875,
        62.24848175048828,
        47.496456146240234
      ],
      "type": "VEC3",
      "bufferView": 0,
      "byteOffset": 0
    },
    {
      "name": "Node-Mesh_0_normals",
      "componentType": 5126,
      "count": 710,
      "min": [
        -0.9997553825378418,
        -0.9966142773628235,
        -0.9996250867843628
      ],
      "max": [
        0.9997553825378418,
        0.9997380971908569,
        0.995295524597168
      ],
      "type": "VEC3",
      "bufferView": 1,
      "byteOffset": 0
    },
    {
      "name": "Node-Mesh_0_indices",
      "componentType": 5123,
      "count": 4248,
      "min": [
        0
      ],
      "max": [
        709
      ],
      "type": "SCALAR",
      "bufferView": 2,
      "byteOffset": 0
    }
  ],
  "asset": {
    "generator": "obj2gltf",
    "version": "2.0"
  },
  "buffers": [
    {
      "name": "fawn",
      "byteLength": 25536,
      "uri": "data:application/octet-stream;base64,"
    }
  ],
  "bufferViews": [
    {
      "name": "bufferView_0",
      "buffer": 0,
      "byteLength": 8520,
      "byteOffset": 0,
      "byteStride": 12,
      "target": 34962
    },
    {
      "name": "bufferView_1",
      "buffer": 0,
      "byteLength": 8520,
      "byteOffset": 8520,
      "byteStride": 12,
      "target": 34962
    },
    {
      "name": "bufferView_2",
      "buffer": 0,
      "byteLength": 8496,
      "byteOffset": 17040,
      "target": 34963
    }
  ],
  "materials": [
    {
      "name": "material_0",
      "pbrMetallicRoughness": {
        "baseColorFactor": [
          1,
          1,
          1,
          1
        ],
        "metallicFactor": 0,
        "roughnessFactor": 1
      },
      "emissiveFactor": [
        0,
        0,
        0
      ],
      "alphaMode": "OPAQUE",
      "doubleSided": false
    }
  ],
  "meshes": [
    {
      "name": "Node-Mesh",
      "primitives": [
        {
          "attributes": {
            "POSITION": 0,
            "NORMAL": 1
          },
          "indices": 2,
          "material": 0,
          "mode": 4
        }
      ]
    }
  ],
  "nodes": [
    {
      "name": "Node",
      "mesh": 0
    }
  ],
  "scene": 0,
  "scenes": [
    {
      "nodes": [
        0
      ]
    }
  ]
}
