{
  "accessors": [
    {
      "name": "grass_weed_module_1_1_0_positions",
      "componentType": 5126,
      "count": 52626,
      "min": [
        -13.353221893310547,
        0,
        -10.410759925842285
      ],
      "max": [
        13.353221893310547,
        10.069931030273438,
        10.410759925842285
      ],
      "type": "VEC3",
      "bufferView": 0,
      "byteOffset": 0
    },
    {
      "name": "grass_weed_module_1_1_0_normals",
      "componentType": 5126,
      "count": 52626,
      "min": [
        -0.9999667406082153,
        -0.9999467134475708,
        -0.9999865889549255
      ],
      "max": [
        0.9999778866767883,
        0.9899446368217468,
        0.9999914169311523
      ],
      "type": "VEC3",
      "bufferView": 1,
      "byteOffset": 0
    },
    {
      "name": "grass_weed_module_1_1_0_texcoords",
      "componentType": 5126,
      "count": 52626,
      "min": [
        0.02212199941277504,
        0.022146999835968018
      ],
      "max": [
        0.9766340255737305,
        0.977853000164032
      ],
      "type": "VEC2",
      "bufferView": 2,
      "byteOffset": 0
    },
    {
      "name": "grass_weed_module_1_1_0_indices",
      "componentType": 5123,
      "count": 144264,
      "min": [
        0
      ],
      "max": [
        52625
      ],
      "type": "SCALAR",
      "bufferView": 3,
      "byteOffset": 0
    }
  ],
  "asset": {
    "generator": "obj2gltf",
    "version": "2.0"
  },
  "buffers": [
    {
      "name": "grass_weed_module_1",
      "byteLength": 2093684,
      "uri": "data:application/octet-stream;base64,"
    }
  ],
  "bufferViews": [
    {
      "name": "bufferView_0",
      "buffer": 0,
      "byteLength": 631512,
      "byteOffset": 0,
      "byteStride": 12,
      "target": 34962
    },
    {
      "name": "bufferView_1",
      "buffer": 0,
      "byteLength": 631512,
      "byteOffset": 631512,
      "byteStride": 12,
      "target": 34962
    },
    {
      "name": "bufferView_2",
      "buffer": 0,
      "byteLength": 421008,
      "byteOffset": 1263024,
      "byteStride": 8,
      "target": 34962
    },
    {
      "name": "bufferView_3",
      "buffer": 0,
      "byteLength": 288528,
      "byteOffset": 1684032,
      "target": 34963
    },
    {
      "buffer": 0,
      "byteOffset": 1972560,
      "byteLength": 72049
    },
    {
      "buffer": 0,
      "byteOffset": 2044609,
      "byteLength": 49073
    }
  ],
  "images": [
    {
      "name": "grass_weed_module_1_baseColor",
      "mimeType": "image/png",
      "bufferView": 4
    },
    {
      "name": "grass_weed_module_1_glow",
      "mimeType": "image/png",
      "bufferView": 5
    }
  ],
  "materials": [
    {
      "name": "grass_weed_module_1_Mat",
      "pbrMetallicRoughness": {
        "baseColorTexture": {
          "index": 0
        },
        "baseColorFactor": [
          1,
          1,
          1,
          1
        ],
        "metallicFactor": 0,
        "roughnessFactor": 0.984
      },
      "emissiveTexture": {
        "index": 1
      },
      "emissiveFactor": [
        1,
        1,
        1
      ],
      "alphaMode": "BLEND",
      "doubleSided": true
    }
  ],
  "meshes": [
    {
      "name": "grass_weed_module_1_1",
      "primitives": [
        {
          "attributes": {
            "POSITION": 0,
            "NORMAL": 1,
            "TEXCOORD_0": 2
          },
          "indices": 3,
          "material": 0,
          "mode": 4
        }
      ]
    }
  ],
  "nodes": [
    {
      "name": "grass_weed_module_1",
      "mesh": 0
    }
  ],
  "samplers": [
    {
      "magFilter": 9729,
      "minFilter": 9986,
      "wrapS": 10497,
      "wrapT": 10497
    }
  ],
  "scene": 0,
  "scenes": [
    {
      "nodes": [
        0
      ]
    }
  ],
  "textures": [
    {
      "name": "grass_weed_module_1_baseColor",
      "sampler": 0,
      "source": 0
    },
    {
      "name": "grass_weed_module_1_glow",
      "sampler": 0,
      "source": 1
    }
  ]
}
